<?xml version="1.0" encoding="utf-8"?>
<!-- Generator: Adobe Illustrator 15.0.0, SVG Export Plug-In . SVG Version: 6.00 Build 0)  -->
<!DOCTYPE svg PUBLIC "-//W3C//DTD SVG 1.1//EN" "http://www.w3.org/Graphics/SVG/1.1/DTD/svg11.dtd">
<svg version="1.1" id="Logo_1_" xmlns="http://www.w3.org/2000/svg" xmlns:xlink="http://www.w3.org/1999/xlink" x="0px" y="0px"
	 width="195px" height="50px" viewBox="0 0 195 50" style="enable-background:new 0 0 195 50;" xml:space="preserve">
<style type="text/css">
<![CDATA[
	.st0{fill:#0050FF;}
	.st1{fill-rule:evenodd;clip-rule:evenodd;fill:#0050FF;}
]]>
</style>
<g id="Logo">
	<g id="Type">
		<path class="st0" d="M64.8,13c0-1-0.9-1.9-1.9-1.9c-1,0-1.9,0.9-1.9,1.9c0,1,0.9,1.9,1.9,1.9C63.9,14.9,64.8,14.1,64.8,13z
			 M61.2,33.1c0,1,0.8,1.7,1.7,1.7c1,0,1.7-0.8,1.7-1.7V19.2c0-1-0.7-1.7-1.7-1.7c-0.9,0-1.7,0.8-1.7,1.7V33.1z"/>
		<path class="st0" d="M78.1,33.1c0,1,0.7,1.7,1.7,1.7c1,0,1.7-0.8,1.7-1.7v-9c0-1.9-0.7-3.5-1.8-4.7c-1.2-1.2-2.8-1.8-4.8-1.8
			c-1.8,0-3.5,0.3-5.1,0.9c-0.9,0.3-1.4,1.1-1.4,2v12.7c0,1,0.8,1.7,1.7,1.7c0.9,0,1.7-0.8,1.7-1.7V21c1-0.3,2.1-0.4,3.2-0.4
			c2,0,3.2,1.2,3.2,3.2V33.1z"/>
		<path class="st0" d="M84.9,29.7c0,3,2.2,5.1,4.9,5.1c0.7,0,1.3-0.1,1.9-0.2c0.8-0.2,1.4-0.8,1.4-1.6c0-1-0.8-1.6-1.6-1.6
			c-0.6,0-0.8,0.3-1.7,0.3c-0.9,0-1.5-0.8-1.5-2v-8.6h3.2c1,0,1.7-0.7,1.7-1.6c0-0.9-0.8-1.6-1.7-1.6h-3.2v-5c0-1-0.8-1.7-1.7-1.7
			c-1,0-1.7,0.8-1.7,1.7V29.7z"/>
		<path class="st0" d="M105.8,27.7c1.2,0,2.1-1,2.1-2.1v-1.5c0-1.9-0.7-3.5-1.8-4.7c-1.2-1.2-2.8-1.8-4.8-1.8
			c-1.9,0-3.5,0.6-4.8,1.8c-1.2,1.2-1.8,2.8-1.8,4.7v4.1c0,1.9,0.6,3.6,1.8,4.8c1.2,1.2,2.9,1.8,4.8,1.8c1.7,0,3.4-0.4,5-1.1
			c0.6-0.3,0.9-0.9,0.9-1.5c0-0.9-0.8-1.5-1.6-1.5c-0.2,0-0.5,0.1-0.7,0.2c-1.1,0.5-2.3,0.9-3.5,0.9c-1.1,0-2-0.4-2.5-1.1
			c-0.4-0.6-0.7-1.5-0.7-2.8H105.8z M98.2,24.6c0-2.8,1.1-4,3.2-4c2.1,0,3.2,1.3,3.2,4H98.2z"/>
		<path class="st0" d="M110.8,33.1c0,1,0.8,1.7,1.7,1.7c0.9,0,1.7-0.8,1.7-1.7V22.1c0-0.8,0.7-1.5,1.5-1.5c0.5,0,1.1,0.1,1.6,0.3
			c0.3,0.1,0.4,0.1,0.6,0.1c1,0,1.6-0.7,1.6-1.6c0-0.8-0.6-1.4-1.3-1.6c-0.8-0.2-1.6-0.3-2.5-0.3c-2.8,0-4.9,2.1-4.9,4.9V33.1z"/>
		<path class="st0" d="M121.5,33.1c0,1,0.8,1.7,1.7,1.7c0.9,0,1.7-0.8,1.7-1.7V12.8c0-1-0.8-1.7-1.7-1.7c-1,0-1.7,0.8-1.7,1.7V33.1z
			"/>
		<path class="st0" d="M132.2,13c0-1-0.9-1.9-1.9-1.9c-1,0-1.9,0.9-1.9,1.9c0,1,0.9,1.9,1.9,1.9C131.4,14.9,132.2,14.1,132.2,13z
			 M128.6,33.1c0,1,0.8,1.7,1.7,1.7c1,0,1.7-0.8,1.7-1.7V19.2c0-1-0.7-1.7-1.7-1.7c-0.9,0-1.7,0.8-1.7,1.7V33.1z"/>
		<path class="st0" d="M145.6,33.1c0,1,0.7,1.7,1.7,1.7s1.7-0.8,1.7-1.7v-9c0-1.9-0.7-3.5-1.8-4.7c-1.2-1.2-2.8-1.8-4.8-1.8
			c-1.8,0-3.5,0.3-5.1,0.9c-0.9,0.3-1.4,1.1-1.4,2v12.7c0,1,0.8,1.7,1.7,1.7c0.9,0,1.7-0.8,1.7-1.7V21c1-0.3,2.1-0.4,3.2-0.4
			c2,0,3.2,1.2,3.2,3.2V33.1z"/>
		<path class="st0" d="M161.8,34.2c0.3,0.4,0.8,0.6,1.3,0.6c1,0,1.6-0.9,1.6-1.7c0-0.4-0.1-0.8-0.4-1.1l-6-6.6l5.6-5
			c0.4-0.3,0.6-0.8,0.6-1.2c0-1-0.8-1.7-1.6-1.7c-0.4,0-0.9,0.1-1.2,0.5l-5.8,5.4V12.8c0-1-0.8-1.7-1.7-1.7c-1,0-1.7,0.8-1.7,1.7
			v20.2c0,1,0.8,1.7,1.7,1.7c0.9,0,1.7-0.8,1.7-1.7v-5.7L161.8,34.2z"/>
		<path class="st0" d="M177.1,27.7c1.2,0,2.1-1,2.1-2.1v-1.5c0-1.9-0.7-3.5-1.8-4.7c-1.2-1.2-2.8-1.8-4.8-1.8
			c-1.9,0-3.5,0.6-4.8,1.8c-1.2,1.2-1.8,2.8-1.8,4.7v4.1c0,1.9,0.6,3.6,1.8,4.8c1.2,1.2,2.9,1.8,4.8,1.8c1.7,0,3.4-0.4,5-1.1
			c0.6-0.3,0.9-0.9,0.9-1.5c0-0.9-0.8-1.5-1.6-1.5c-0.2,0-0.5,0.1-0.7,0.2c-1.1,0.5-2.3,0.9-3.5,0.9c-1.1,0-2-0.4-2.5-1.1
			c-0.4-0.6-0.7-1.5-0.7-2.8H177.1z M169.5,24.6c0-2.8,1.1-4,3.2-4c2.1,0,3.2,1.3,3.2,4H169.5z"/>
		<path class="st0" d="M181.6,28.2c0,1.9,0.6,3.6,1.8,4.8c1.2,1.2,2.9,1.8,4.8,1.8c1.8,0,3.5-0.3,5.1-0.9c0.9-0.3,1.4-1.1,1.4-2
			V12.8c0-1-0.8-1.7-1.7-1.7c-1,0-1.7,0.8-1.7,1.7c0,0,0,3.4,0,5.5c-0.9-0.5-2.1-0.9-3.2-0.9c-1.9,0-3.6,0.6-4.8,1.8
			c-1.2,1.2-1.8,2.9-1.8,4.8V28.2z M191.4,31.2c-1,0.3-2.1,0.4-3.2,0.4c-2,0-3.2-1.1-3.2-3.2v-4.7c0-2,1.2-3.2,3.2-3.2
			c1.2,0,2.3,0.4,3.2,1.2V31.2z"/>
	</g>
	<path id="Visual" class="st1" d="M41.7,0H8.3C3.7,0,0,3.7,0,8.3v33.3C0,46.3,3.7,50,8.3,50h33.3c4.6,0,8.3-3.7,8.3-8.3V8.3
		C50,3.7,46.3,0,41.7,0z M8.3,23c-1.2,0-2.2-1-2.2-2.2c0-1.2,1-2.2,2.2-2.2s18.6-1.1,18.8-1.1c0.3,0,0.5-0.2,0.5-0.5
		c0,0,0-0.1,0-0.1l0,0c-0.4-1.2-1.2-3-1.2-4.3c0,0,0-0.6,0.4-1.1c0.6-0.6,1.5-0.6,2.1,0c0.6,0.6,5.3,5.3,6.5,6.5
		c0.5,0.5,0.9,1.3,0.9,2.1c0,1.7-1.3,3-3,3C31.7,23,9.5,23,8.3,23z M41.7,30.5c-1.2,0-18.6,1.1-18.8,1.1c-0.3,0-0.5,0.2-0.5,0.5
		c0,0,0,0.1,0,0.1l0,0c0.4,1.2,1.2,3,1.2,4.3c0,0,0,0.6-0.4,1.1c-0.6,0.6-1.5,0.6-2.1,0c-0.6-0.6-5.3-5.3-6.5-6.5
		c-0.5-0.5-0.9-1.3-0.9-2.1c0-1.7,1.3-3,3-3c1.7,0,23.8,0,25,0s2.2,1,2.2,2.2C43.9,29.5,42.9,30.5,41.7,30.5z"/>
</g>
</svg>
